<svg xmlns="http://www.w3.org/2000/svg" viewBox="0 0 48 48" width="48" height="48">
  <defs>
    <linearGradient id="brandGradient" x1="0%" y1="0%" x2="100%" y2="100%">
      <stop offset="0%" style="stop-color:#EB1616"/>
      <stop offset="100%" style="stop-color:#B91C1C"/>
    </linearGradient>
  </defs>
  
  <!-- Background circle -->
  <circle cx="24" cy="24" r="22" fill="url(#brandGradient)"/>
  
  <!-- Auto Awesome / Sparkle icon - Material Icons style -->
  <g fill="#FFFFFF">
    <!-- Main star/sparkle -->
    <path d="M24 8L26.5 18.5L37 21L26.5 23.5L24 34L21.5 23.5L11 21L21.5 18.5L24 8Z"/>
    
    <!-- Small sparkle top-right -->
    <path d="M35 10L36 14L40 15L36 16L35 20L34 16L30 15L34 14L35 10Z"/>
    
    <!-- Small sparkle bottom-left -->
    <path d="M13 28L14 32L18 33L14 34L13 38L12 34L8 33L12 32L13 28Z"/>
  </g>
</svg>
